# xmcd CD database file
#
# Track frame offsets:
#	150
#	18252
#	40213
#	51058
#	72752
#	108548
#	125362
#	146057
#	167444
#	180559
#	198804
#	211577
#
# Disc length: 2988 seconds
#
# Revision: 0
# Processed by: cddbd v1.5.2PL0 Copyright (c) Steve Scherf et al.
# Submitted via: CDex 1.51
#
DISCID=9b0baa0c
DTITLE=Cambodian Living Arts - Khmer Jazz Fusion
DYEAR=2006
DGENRE=Jazz
TTITLE0=The Barber
TTITLE1=Sat Mahaori
TTITLE2=Pinn Peat
TTITLE3=Footprints
TTITLE4=Sobay Chant
TTITLE5=Juno Katah
TTITLE6=Take Five
TTITLE7=Smaong
TTITLE8=Kyal Rompeuypat
TTITLE9=What's Happening
TTITLE10=Unknown Traditional
TTITLE11=A Snapshot
EXTD=YEAR: 2006
EXTT0=
EXTT1=
EXTT2=
EXTT3=
EXTT4=
EXTT5=
EXTT6=
EXTT7=
EXTT8=
EXTT9=
EXTT10=
EXTT11=
PLAYORDER=
